<mxfile host="app.diagrams.net" modified="2022-06-29T14:39:32.084Z" agent="5.0 (Windows NT 10.0; Win64; x64) AppleWebKit/537.36 (KHTML, like Gecko) Chrome/103.0.5060.53 Safari/537.36 Edg/103.0.1264.37" etag="hWNP_P8FCke586gwkZjN" version="20.0.1" type="github">
  <diagram id="W0AHtYKKP0wHDjZA4Mnt" name="Page-1">
    <mxGraphModel dx="1550" dy="844" grid="1" gridSize="10" guides="1" tooltips="1" connect="1" arrows="1" fold="1" page="1" pageScale="1" pageWidth="827" pageHeight="1169" math="0" shadow="0">
      <root>
        <mxCell id="0" />
        <mxCell id="1" parent="0" />
        <mxCell id="hwy5j__0QWYDqPFrOiYS-15" value="" style="rounded=0;whiteSpace=wrap;html=1;" vertex="1" parent="1">
          <mxGeometry x="280" y="300" width="90" height="40" as="geometry" />
        </mxCell>
        <mxCell id="hwy5j__0QWYDqPFrOiYS-2" value="" style="rounded=0;whiteSpace=wrap;html=1;" vertex="1" parent="1">
          <mxGeometry x="240" y="220" width="90" height="40" as="geometry" />
        </mxCell>
        <mxCell id="hwy5j__0QWYDqPFrOiYS-1" value="" style="endArrow=classic;html=1;rounded=0;" edge="1" parent="1">
          <mxGeometry width="50" height="50" relative="1" as="geometry">
            <mxPoint x="160" y="240" as="sourcePoint" />
            <mxPoint x="480" y="240" as="targetPoint" />
          </mxGeometry>
        </mxCell>
        <mxCell id="hwy5j__0QWYDqPFrOiYS-6" value="" style="endArrow=classic;html=1;rounded=0;" edge="1" parent="1">
          <mxGeometry width="50" height="50" relative="1" as="geometry">
            <mxPoint x="160" y="160" as="sourcePoint" />
            <mxPoint x="480" y="160" as="targetPoint" />
          </mxGeometry>
        </mxCell>
        <mxCell id="hwy5j__0QWYDqPFrOiYS-7" value="" style="endArrow=classic;html=1;rounded=0;" edge="1" parent="1">
          <mxGeometry width="50" height="50" relative="1" as="geometry">
            <mxPoint x="160" y="320" as="sourcePoint" />
            <mxPoint x="480" y="320" as="targetPoint" />
          </mxGeometry>
        </mxCell>
        <mxCell id="hwy5j__0QWYDqPFrOiYS-8" value="t" style="text;html=1;align=center;verticalAlign=middle;resizable=0;points=[];autosize=1;strokeColor=none;fillColor=none;" vertex="1" parent="1">
          <mxGeometry x="120" y="150" width="20" height="20" as="geometry" />
        </mxCell>
        <mxCell id="hwy5j__0QWYDqPFrOiYS-9" value="" style="endArrow=none;html=1;rounded=0;" edge="1" parent="1">
          <mxGeometry width="50" height="50" relative="1" as="geometry">
            <mxPoint x="200" y="160" as="sourcePoint" />
            <mxPoint x="200" y="150" as="targetPoint" />
          </mxGeometry>
        </mxCell>
        <mxCell id="hwy5j__0QWYDqPFrOiYS-11" value="t" style="text;html=1;align=center;verticalAlign=middle;resizable=0;points=[];autosize=1;strokeColor=none;fillColor=none;" vertex="1" parent="1">
          <mxGeometry x="190" y="160" width="20" height="20" as="geometry" />
        </mxCell>
        <mxCell id="hwy5j__0QWYDqPFrOiYS-12" value="I" style="text;html=1;align=center;verticalAlign=middle;resizable=0;points=[];autosize=1;strokeColor=none;fillColor=none;" vertex="1" parent="1">
          <mxGeometry x="270" y="260" width="20" height="20" as="geometry" />
        </mxCell>
        <mxCell id="hwy5j__0QWYDqPFrOiYS-13" value="I" style="text;html=1;align=center;verticalAlign=middle;resizable=0;points=[];autosize=1;strokeColor=none;fillColor=none;" vertex="1" parent="1">
          <mxGeometry x="120" y="230" width="20" height="20" as="geometry" />
        </mxCell>
        <mxCell id="hwy5j__0QWYDqPFrOiYS-14" value="t + I" style="text;html=1;align=center;verticalAlign=middle;resizable=0;points=[];autosize=1;strokeColor=none;fillColor=none;" vertex="1" parent="1">
          <mxGeometry x="110" y="310" width="40" height="20" as="geometry" />
        </mxCell>
        <mxCell id="hwy5j__0QWYDqPFrOiYS-16" value="t&#39;1" style="text;html=1;align=center;verticalAlign=middle;resizable=0;points=[];autosize=1;strokeColor=none;fillColor=none;" vertex="1" parent="1">
          <mxGeometry x="225" y="260" width="30" height="20" as="geometry" />
        </mxCell>
        <mxCell id="hwy5j__0QWYDqPFrOiYS-17" value="t&#39;2" style="text;html=1;align=center;verticalAlign=middle;resizable=0;points=[];autosize=1;strokeColor=none;fillColor=none;" vertex="1" parent="1">
          <mxGeometry x="310" y="260" width="30" height="20" as="geometry" />
        </mxCell>
        <mxCell id="hwy5j__0QWYDqPFrOiYS-18" value="I&#39;" style="text;html=1;align=center;verticalAlign=middle;resizable=0;points=[];autosize=1;strokeColor=none;fillColor=none;" vertex="1" parent="1">
          <mxGeometry x="315" y="350" width="20" height="20" as="geometry" />
        </mxCell>
        <mxCell id="hwy5j__0QWYDqPFrOiYS-19" value="t+t&#39;1" style="text;html=1;align=center;verticalAlign=middle;resizable=0;points=[];autosize=1;strokeColor=none;fillColor=none;" vertex="1" parent="1">
          <mxGeometry x="260" y="350" width="40" height="20" as="geometry" />
        </mxCell>
        <mxCell id="hwy5j__0QWYDqPFrOiYS-20" value="t+t&#39;2" style="text;html=1;align=center;verticalAlign=middle;resizable=0;points=[];autosize=1;strokeColor=none;fillColor=none;" vertex="1" parent="1">
          <mxGeometry x="350" y="350" width="40" height="20" as="geometry" />
        </mxCell>
      </root>
    </mxGraphModel>
  </diagram>
</mxfile>
